<?xml version="1.0" standalone="no"?>
<!DOCTYPE svg PUBLIC "-//W3C//DTD SVG 20010904//EN"
 "http://www.w3.org/TR/2001/REC-SVG-20010904/DTD/svg10.dtd">
<svg version="1.0" xmlns="http://www.w3.org/2000/svg"
 width="256.000000pt" height="256.000000pt" viewBox="0 0 256.000000 256.000000"
 preserveAspectRatio="xMidYMid meet">
<metadata>
Created by potrace 1.11, written by Peter Selinger 2001-2013
</metadata>
<g transform="translate(0.000000,256.000000) scale(0.100000,-0.100000)"
fill="#000000" stroke="none">
<path d="M467 2186 c86 -127 235 -348 331 -491 97 -143 176 -261 177 -263 1
-1 34 44 73 100 40 57 75 108 80 113 4 6 20 28 35 49 l26 39 -28 36 c-15 20
-117 169 -226 331 -109 162 -202 300 -207 305 -5 6 -91 10 -213 11 l-204 1
156 -231z"/>
<path d="M1636 2080 l-226 -341 32 -46 c18 -25 40 -56 48 -69 44 -67 114 -165
121 -170 5 -3 9 0 9 6 0 6 5 16 10 23 6 7 150 220 321 475 l309 462 -198 0
-199 0 -227 -340z"/>
<path d="M1189 1413 l-97 -146 17 -28 c9 -16 40 -62 69 -104 28 -42 52 -80 52
-85 0 -4 3 -10 8 -12 4 -1 79 -111 167 -243 88 -132 163 -241 168 -243 4 -2 7
-7 7 -12 0 -10 251 -383 264 -392 6 -4 102 -7 213 -6 l203 1 -18 27 c-9 15
-71 106 -137 203 -66 98 -124 185 -130 195 -5 9 -13 19 -16 22 -6 5 -261 381
-289 425 -8 14 -71 107 -140 207 -68 101 -147 216 -175 257 -27 41 -54 76 -60
77 -5 1 -53 -63 -106 -143z"/>
<path d="M815 863 c-82 -119 -179 -260 -216 -313 -36 -52 -83 -120 -104 -150
-21 -30 -70 -100 -107 -155 l-69 -100 198 -3 c109 -1 203 0 209 2 9 4 226 315
244 351 15 30 133 201 141 203 5 2 9 8 9 13 0 5 12 27 26 48 27 41 25 56 -12
99 -7 9 -44 62 -81 116 -38 55 -72 101 -78 103 -5 1 -77 -95 -160 -214z"/>
</g>
</svg>
